
<svg version="1.2" xmlns="http://www.w3.org/2000/svg" viewBox="0 0 1342 1453" width="1342" height="1453"><style>.a{fill:#ff5900}.b{fill:#ff9d68}</style><path class="a" d="m1239.5 1023.1c-5.9-10.1-16.6-18-27.9-21.4-116-34.7-209.8-133.5-239.7-250.6q-1.6-6.1-3.1-12.3c13.2-44.4 6.9-187.2 0.6-208.7 0-1.7-0.7-25.8-0.7-27.4 0-194-163.8-328.7-366.8-328.7-203.1 0-367.7 157.2-367.7 351.2 0 31.7-28.9 169.4 40.5 247.4 5.8 6.5-33 88.7-50.3 107.7-21.7 23.7-48.3 42.5-77.4 55.9-41.2 19-113.4 32.8-105.6 93.3 4.9 37.4 46.8 55.3 79.7 61.4 71.5 13.2 140.4-34.3 193.7-75.9 1.9-1.5 4.5 0.6 3.4 2.7-17.4 35-41.5 77.5-36 118 5.7 42.9 58.1 59.3 95.5 55.3 76.8-8.2 104.1-71.6 134.2-146.7 2.6-6.7 12.2-6 13.8 1 11.5 49 24.9 105.4 57.6 145.2 28.9 35.2 74 66.2 120.4 70.6 62.8 5.8 62-61.7 49.7-104.7-8.4-29.7-15.1-74.5-22.8-110.8-0.9-4.3 4.9-6.7 7.2-3 30.1 47.3 72.3 87 122.7 112 32.2 16 69.4 32.2 106.4 31.9 17.3-0.2 37.8-5.1 48.9-19.3 15.9-20.3-1.3-40.7-16.4-55.2-18.1-17.4-34.4-36.4-52.1-54.2-1.8-1.9 0.4-4.8 2.7-3.4 71.8 42.8 161.5 55.4 242.1 32.8 25.4-7.1 66-32.1 47.4-64.1z"/><path fill-rule="evenodd" class="b" d="m855.9 809c-90.8 0-164.2-73.4-164.2-164.1 0-90.8 73.4-164.2 164.2-164.2 90.7 0 164.1 73.4 164.1 164.2 0 90.7-73.4 164.1-164.1 164.1z"/><path fill-rule="evenodd" d="m866 709.6c-35.8 0-64.7-29-64.7-64.8 0-35.7 28.9-64.7 64.7-64.7 35.8 0 64.7 29 64.7 64.7 0 35.8-28.9 64.8-64.7 64.8z"/><path fill-rule="evenodd" class="b" d="m869.3 674.6c-15.3 0-27.6-12.3-27.6-27.6 0-15.3 12.3-27.7 27.6-27.7 15.3 0 27.6 12.4 27.6 27.7 0 15.3-12.3 27.6-27.6 27.6z"/><path class="b" d="m194.3 652.9c0 90.7 73.4 164.2 164.1 164.2 90.6 0 164.1-73.5 164.1-164.2 0-90.6-73.5-164.1-164.1-164.1-90.7 0-164.1 73.5-164.1 164.1z"/><path  d="m313.6 659.3c0 35.7 28.9 64.7 64.7 64.7 35.7 0 64.7-29 64.7-64.7 0-35.8-29-64.7-64.7-64.7-35.8 0-64.7 28.9-64.7 64.7z"/><path class="b" d="m355 661.3c0 15.3 12.4 27.6 27.7 27.6 15.2 0 27.6-12.3 27.6-27.6 0-15.3-12.4-27.6-27.6-27.6-15.3 0-27.7 12.3-27.7 27.6z"/><path class="b" d="m615.9 848.3c35.5 0 65.1-20.3 73.4-47.8 1.5 5 2.4 10.2 2.4 15.6 0 35-33.9 63.4-75.8 63.4-41.8 0-75.7-28.4-75.7-63.4 0-5.4 0.9-10.6 2.4-15.6 8.3 27.5 37.9 47.8 73.3 47.8z"/></svg>
